<svg width="30" height="30" viewBox="0 0 30 30" fill="none" xmlns="http://www.w3.org/2000/svg">
<path d="M9.99994 17.5L9.55369 19.73C9.16869 21.655 8.97619 22.6175 8.28494 23.1838C7.59369 23.75 6.61369 23.75 4.65119 23.75H2.49994M2.49994 21.25V26.25M21.1887 14.385L26.5037 14.4263C26.6595 14.428 26.8127 14.4661 26.9512 14.5375C27.1896 14.6625 27.3692 14.8763 27.4513 15.1326C27.5334 15.389 27.5113 15.6673 27.3899 15.9075L24.3574 21.9438C24.2814 22.0981 24.1666 22.2302 24.0244 22.3271C23.8822 22.424 23.7173 22.4825 23.5459 22.4968C23.3744 22.5111 23.2021 22.4809 23.0458 22.4089C22.8894 22.337 22.7544 22.2259 22.6537 22.0863L19.4987 17.75M16.2724 13.0813L16.2024 13.2213M18.9362 18.8713L21.7537 13.2638C22.0526 12.6698 22.1064 11.9821 21.9035 11.3488C21.7006 10.7155 21.2572 10.1872 20.6687 9.87753L9.60619 4.16253C9.16975 3.93806 8.69301 3.80267 8.20373 3.76423C7.71446 3.7258 7.22243 3.78508 6.75629 3.93864C6.29015 4.0922 5.85921 4.33696 5.48858 4.65867C5.11795 4.98038 4.81502 5.37261 4.59744 5.81253L2.90619 9.17753C1.97244 11.0363 2.70119 13.31 4.53369 14.2575L15.5949 19.9725C16.8162 20.6038 18.3112 20.11 18.9349 18.8725M16.3412 12.9425C16.4148 12.9809 16.4704 13.0468 16.4959 13.1259C16.5214 13.2049 16.5148 13.2908 16.4774 13.365C16.4593 13.4017 16.434 13.4343 16.4031 13.4611C16.3722 13.4879 16.3363 13.5083 16.2974 13.5211C16.2586 13.5339 16.2176 13.5388 16.1768 13.5356C16.1361 13.5324 16.0963 13.5212 16.0599 13.5025C15.9865 13.4639 15.9312 13.398 15.9057 13.319C15.8802 13.2401 15.8867 13.1543 15.9237 13.08C15.9419 13.0434 15.9671 13.0107 15.998 12.9839C16.0289 12.9572 16.0648 12.9368 16.1037 12.924C16.1425 12.9112 16.1835 12.9062 16.2243 12.9094C16.2651 12.9126 16.3048 12.9239 16.3412 12.9425Z" stroke="#374151" stroke-width="1.5" stroke-linecap="round" stroke-linejoin="round"/>
</svg>
