<svg width="70" height="70" viewBox="0 0 70 70" fill="none" xmlns="http://www.w3.org/2000/svg">
<path d="M32.3396 69.4763C31.4947 69.1272 30.7232 68.6326 30.0249 67.9925L2.00748 39.9751C1.36741 39.2768 0.872818 38.5052 0.52369 37.6604C0.174563 36.8155 0 35.9287 0 35C0 34.0713 0.174563 33.1694 0.52369 32.2943C0.872818 31.4191 1.36741 30.6627 2.00748 30.025L30.0249 2.00751C30.7232 1.30925 31.4947 0.799526 32.3396 0.478329C33.1845 0.157132 34.0713 -0.0023024 35 2.51171e-05C35.9287 0.00235263 36.8306 0.162951 37.7057 0.48182C38.5809 0.800689 39.3373 1.30925 39.975 2.00751L67.9925 30.025C68.6907 30.665 69.2005 31.4215 69.5217 32.2943C69.8429 33.1671 70.0023 34.069 70 35C69.9976 35.931 69.8382 36.819 69.5217 37.6639C69.2051 38.5087 68.6954 39.2791 67.9925 39.9751L39.975 67.9925C39.335 68.6326 38.5785 69.1272 37.7057 69.4763C36.8329 69.8254 35.931 70 35 70C34.069 70 33.1845 69.8254 32.3396 69.4763ZM37.4893 37.4893C38.1573 36.819 38.4913 35.9892 38.4913 35V21.0349C38.4913 20.0457 38.1561 19.2171 37.4858 18.5491C36.8154 17.8811 35.9869 17.546 35 17.5437C34.0131 17.5413 33.1845 17.8765 32.5142 18.5491C31.8439 19.2218 31.5087 20.0504 31.5087 21.0349V35C31.5087 35.9892 31.8439 36.819 32.5142 37.4893C33.1845 38.1596 34.0131 38.4936 35 38.4913C35.9869 38.489 36.8166 38.1538 37.4893 37.4858M37.4893 47.9596C38.1573 47.2939 38.4913 46.4653 38.4913 45.4738C38.4913 44.4823 38.1561 43.6537 37.4858 42.988C36.8154 42.3224 35.9869 41.9872 35 41.9826C34.0131 41.9779 33.1845 42.3131 32.5142 42.988C31.8439 43.663 31.5087 44.4916 31.5087 45.4738C31.5087 46.456 31.8439 47.2858 32.5142 47.9631C33.1845 48.6404 34.0131 48.9744 35 48.9651C35.9869 48.9558 36.8166 48.6206 37.4893 47.9596Z" fill="#7F1D1D"/>
</svg>
