<svg width="60" height="60" viewBox="0 0 60 60" fill="none" xmlns="http://www.w3.org/2000/svg">
<path d="M30 0C13.4308 0 0 13.4308 0 30C0 46.5692 13.4308 60 30 60C46.5692 60 60 46.5692 60 30C60 13.4308 46.5692 0 30 0ZM30 14.2369C30.612 14.2369 31.199 14.4801 31.6318 14.9128C32.0646 15.3456 32.3077 15.9326 32.3077 16.5446V33.4677C32.3077 34.0797 32.0646 34.6667 31.6318 35.0995C31.199 35.5323 30.612 35.7754 30 35.7754C29.388 35.7754 28.801 35.5323 28.3682 35.0995C27.9354 34.6667 27.6923 34.0797 27.6923 33.4677V16.5446C27.6923 15.9326 27.9354 15.3456 28.3682 14.9128C28.801 14.4801 29.388 14.2369 30 14.2369ZM32.3077 41.9169V43.4554C32.3077 44.0674 32.0646 44.6544 31.6318 45.0872C31.199 45.5199 30.612 45.7631 30 45.7631C29.388 45.7631 28.801 45.5199 28.3682 45.0872C27.9354 44.6544 27.6923 44.0674 27.6923 43.4554V41.9169C27.6923 41.3049 27.9354 40.7179 28.3682 40.2851C28.801 39.8524 29.388 39.6092 30 39.6092C30.612 39.6092 31.199 39.8524 31.6318 40.2851C32.0646 40.7179 32.3077 41.3049 32.3077 41.9169Z" fill="#EF4444"/>
</svg>
