<svg width="25" height="25" viewBox="0 0 25 25" fill="none" xmlns="http://www.w3.org/2000/svg">
<path d="M15.0396 6.15312e-07C15.2337 -0.000221412 15.4229 0.0596487 15.5798 0.170976C15.7367 0.282304 15.8534 0.439334 15.9128 0.61942L16.9206 3.67188C17.3412 3.87168 17.7469 4.10011 18.1346 4.35547L21.3527 3.68025C21.5424 3.64108 21.7399 3.66158 21.9169 3.73879C22.0939 3.816 22.2412 3.94595 22.3376 4.10993L24.8771 8.39286C24.9742 8.5566 25.0154 8.74616 24.9948 8.9342C24.9742 9.12225 24.8929 9.29907 24.7626 9.43917L22.5552 11.8136C22.5873 12.2688 22.5873 12.7256 22.5552 13.1808L24.7597 15.5608C24.8905 15.7006 24.9724 15.8773 24.9935 16.0653C25.0146 16.2534 24.9738 16.4431 24.8771 16.6071L22.3376 20.8929C22.2408 21.0563 22.0933 21.1857 21.9164 21.2624C21.7394 21.3391 21.5421 21.3592 21.3527 21.3198L18.1346 20.6445C17.749 20.8975 17.3443 21.1254 16.9206 21.3281L15.9128 24.3806C15.8534 24.5607 15.7367 24.7177 15.5798 24.829C15.4229 24.9403 15.2337 25.0002 15.0396 25H9.96044C9.76632 25.0002 9.57715 24.9403 9.4202 24.829C9.26326 24.7177 9.14665 24.5607 9.0872 24.3806L8.08226 21.3309C7.65969 21.1292 7.25213 20.8989 6.86258 20.6417L3.64734 21.3198C3.45763 21.3589 3.26007 21.3384 3.08309 21.2612C2.9061 21.184 2.75881 21.054 2.66243 20.8901L0.122875 16.6071C0.0258024 16.4434 -0.0154131 16.2538 0.00516901 16.0658C0.0257511 15.8778 0.107068 15.7009 0.237399 15.5608L2.44484 13.1808C2.41297 12.7275 2.41297 12.2725 2.44484 11.8192L0.240262 9.43917C0.109479 9.29938 0.0276365 9.12272 0.00653882 8.93466C-0.0145589 8.74661 0.0261783 8.55689 0.122875 8.39286L2.66243 4.10714C2.75923 3.94367 2.90669 3.8143 3.08365 3.7376C3.2606 3.66091 3.45794 3.64082 3.64734 3.68025L6.86258 4.35826C7.25228 4.1013 7.65982 3.87102 8.08226 3.66909L9.09006 0.61942C9.14921 0.44024 9.26495 0.283858 9.42075 0.172615C9.57655 0.0613716 9.76444 0.000956843 9.95758 6.15312e-07H15.0396ZM14.3696 1.78571H10.6304L9.5911 4.93862L8.88965 5.27344C8.54373 5.4388 8.20987 5.62712 7.89043 5.83705L7.24337 6.26395L3.91647 5.56641L2.04687 8.71931L4.32875 11.183L4.27149 11.9392C4.24514 12.3126 4.24514 12.6874 4.27149 13.0608L4.32875 13.817L2.04401 16.2779L3.91074 19.4364L7.23765 18.7388L7.88757 19.1629C8.20617 19.3718 8.53907 19.5592 8.88392 19.7238L9.58538 20.0586L10.6304 23.2143H14.3725L15.4203 20.0558L16.1189 19.7238C16.464 19.5606 16.7969 19.3741 17.1153 19.1657L17.7624 18.7388L21.0921 19.4364L22.9589 16.2779L20.677 13.817L20.7342 13.0608C20.7607 12.6865 20.7607 12.3108 20.7342 11.9364L20.677 11.1802L22.9617 8.7221L21.0893 5.56362L17.7595 6.26116L17.1124 5.83705C16.7941 5.62773 16.4612 5.44033 16.1161 5.27623L15.4203 4.93862L14.3696 1.78571ZM12.5 7.14286C13.9579 7.14286 15.3561 7.70727 16.3871 8.71193C17.418 9.71659 17.9971 11.0792 17.9971 12.5C17.9971 13.9208 17.418 15.2834 16.3871 16.2881C15.3561 17.2927 13.9579 17.8571 12.5 17.8571C11.0421 17.8571 9.64386 17.2927 8.61294 16.2881C7.58203 15.2834 7.00287 13.9208 7.00287 12.5C7.00287 11.0792 7.58203 9.71659 8.61294 8.71193C9.64386 7.70727 11.0421 7.14286 12.5 7.14286ZM12.5 8.92857C11.528 8.92857 10.5959 9.30485 9.90863 9.97462C9.22135 10.6444 8.83525 11.5528 8.83525 12.5C8.83525 13.4472 9.22135 14.3556 9.90863 15.0254C10.5959 15.6952 11.528 16.0714 12.5 16.0714C13.472 16.0714 14.4041 15.6952 15.0914 15.0254C15.7786 14.3556 16.1648 13.4472 16.1648 12.5C16.1648 11.5528 15.7786 10.6444 15.0914 9.97462C14.4041 9.30485 13.472 8.92857 12.5 8.92857Z" fill="#027A38"/>
</svg>
