<svg width="27" height="30" viewBox="0 0 27 30" fill="none" xmlns="http://www.w3.org/2000/svg">
<path d="M7.25 12H19.75M7.25 23H19.75M7.25 17.5H13.5M1 27.675V1.825C1 1.6062 1.09877 1.39635 1.27459 1.24164C1.4504 1.08692 1.68886 1 1.9375 1H20.1437C20.3923 1.00019 20.6306 1.08724 20.8062 1.242L25.725 5.5705C25.8124 5.64736 25.8818 5.73868 25.929 5.83921C25.9762 5.93974 26.0003 6.04748 26 6.15625V27.675C26 27.7833 25.9757 27.8906 25.9286 27.9907C25.8815 28.0908 25.8125 28.1818 25.7254 28.2584C25.6384 28.335 25.535 28.3957 25.4213 28.4372C25.3075 28.4787 25.1856 28.5 25.0625 28.5H1.9375C1.81439 28.5 1.69248 28.4787 1.57873 28.4372C1.46499 28.3957 1.36164 28.335 1.27459 28.2584C1.18753 28.1818 1.11848 28.0908 1.07136 27.9907C1.02425 27.8906 1 27.7833 1 27.675Z" stroke="#374151" stroke-width="2" stroke-linecap="round" stroke-linejoin="round"/>
<path d="M19.75 1V5.675C19.75 5.8938 19.8488 6.10365 20.0246 6.25836C20.2004 6.41308 20.4389 6.5 20.6875 6.5H26" stroke="#374151" stroke-width="1.5" stroke-linecap="round" stroke-linejoin="round"/>
</svg>
