<svg width="17" height="17" viewBox="0 0 17 17" fill="none" xmlns="http://www.w3.org/2000/svg">
<g clip-path="url(#clip0_61_68)">
<path d="M8.5 0C13.1946 0 17 3.80545 17 8.5C17 13.1946 13.1946 17 8.5 17C3.80545 17 0 13.1946 0 8.5C0 3.80545 3.80545 0 8.5 0ZM8.5 1.18575C6.56014 1.18575 4.69973 1.95636 3.32804 3.32804C1.95636 4.69973 1.18575 6.56014 1.18575 8.5C1.18575 10.4399 1.95636 12.3003 3.32804 13.672C4.69973 15.0436 6.56014 15.8142 8.5 15.8142C10.4399 15.8142 12.3003 15.0436 13.672 13.672C15.0436 12.3003 15.8142 10.4399 15.8142 8.5C15.8142 6.56014 15.0436 4.69973 13.672 3.32804C12.3003 1.95636 10.4399 1.18575 8.5 1.18575ZM8.37675 6.1285C8.704 6.1285 8.9692 6.39455 8.9692 6.7218V13.1461C8.96339 13.2995 8.89839 13.4446 8.78784 13.551C8.67729 13.6575 8.52979 13.7169 8.37632 13.7169C8.22286 13.7169 8.07536 13.6575 7.96481 13.551C7.85426 13.4446 7.78926 13.2995 7.78345 13.1461V6.72095C7.78345 6.3937 8.04865 6.1285 8.37675 6.1285ZM8.40055 3.75615C8.6102 3.75615 8.81127 3.83943 8.95952 3.98768C9.10777 4.13593 9.19105 4.337 9.19105 4.54665C9.19105 4.7563 9.10777 4.95737 8.95952 5.10562C8.81127 5.25387 8.6102 5.33715 8.40055 5.33715C8.1909 5.33715 7.98983 5.25387 7.84158 5.10562C7.69333 4.95737 7.61005 4.7563 7.61005 4.54665C7.61005 4.337 7.69333 4.13593 7.84158 3.98768C7.98983 3.83943 8.1909 3.75615 8.40055 3.75615Z" fill="#027A38"/>
</g>
<defs>
<clipPath id="clip0_61_68">
<rect width="17" height="17" fill="white"/>
</clipPath>
</defs>
</svg>
