<svg width="30" height="30" viewBox="0 0 30 30" fill="none" xmlns="http://www.w3.org/2000/svg">
<path d="M16.5616 22.9185H13.5263C13.2806 22.9177 13.0452 22.8197 12.8715 22.6459C12.6978 22.472 12.5999 22.2365 12.5993 21.9908L12.4276 19.6395C11.4844 19.1548 10.6927 18.4201 10.139 17.5158C9.58527 16.6114 9.29091 15.5722 9.28809 14.5118C9.28809 11.3378 11.8703 8.75476 15.0451 8.75476C18.2198 8.75476 20.8021 11.337 20.8021 14.5118C20.7993 15.5722 20.5049 16.6114 19.9512 17.5158C19.3975 18.4201 18.6058 19.1548 17.6626 19.6395L17.4893 22.0178C17.4886 22.5023 17.0731 22.9185 16.5616 22.9185ZM15.0443 9.50476C13.7169 9.50635 12.4443 10.0344 11.5056 10.973C10.567 11.9117 10.0389 13.1843 10.0373 14.5118C10.0395 15.4672 10.3139 16.4022 10.8285 17.2072C11.3431 18.0122 12.0766 18.6538 12.9428 19.0568L13.1431 19.1498L13.3478 21.9638C13.3486 22.089 13.4281 22.1685 13.5263 22.1685H16.5616C16.6591 22.1685 16.7386 22.089 16.7386 21.9908L16.9441 19.1498L17.1451 19.0575C18.0109 18.6537 18.7439 18.0118 19.2584 17.2069C19.773 16.4019 20.0477 15.4671 20.0506 14.5118C20.049 13.1844 19.5211 11.9119 18.5826 10.9733C17.6441 10.0347 16.3717 9.50655 15.0443 9.50476Z" fill="#027A38"/>
<path d="M16.6448 25.4205H13.443C13.1974 25.4201 12.9619 25.3223 12.7882 25.1485C12.6146 24.9747 12.517 24.7391 12.5168 24.4935V23.61C12.5168 23.0985 12.9323 22.6837 13.443 22.6837H16.6448C17.1563 22.6837 17.5718 23.0992 17.5718 23.61V24.4935C17.5716 24.7393 17.4738 24.9749 17.3 25.1487C17.1262 25.3225 16.8906 25.4203 16.6448 25.4205ZM13.4438 23.433C13.397 23.433 13.3522 23.4515 13.3191 23.4846C13.2861 23.5176 13.2675 23.5625 13.2675 23.6092V24.4927C13.2675 24.5902 13.3463 24.6697 13.4438 24.6697H16.6455C16.743 24.6697 16.8225 24.5902 16.8225 24.4927V23.61C16.8223 23.5632 16.8036 23.5183 16.7704 23.4853C16.7372 23.4523 16.6923 23.4337 16.6455 23.4337L13.4438 23.433ZM14.6693 3.07947H15.4193V7.71672H14.6693V3.07947ZM23.232 6.88122L23.7623 7.41147L20.4833 10.6897L19.953 10.1595L23.232 6.88122ZM22.1138 14.7397H26.751V15.4897H22.1138V14.7397ZM6.77102 6.87972L10.0493 10.158L9.51902 10.6882L6.24077 7.41072L6.77102 6.87972ZM3.24902 14.7397H7.88702V15.4897H3.24902V14.7397Z" fill="#027A38"/>
</svg>
