<svg width="36" height="36" viewBox="0 0 36 36" fill="none" xmlns="http://www.w3.org/2000/svg">
<path d="M8.424 30C7.733 30 7.1565 29.769 6.6945 29.307C6.2325 28.845 6.001 28.268 6 27.576V8.424C6 7.733 6.2315 7.1565 6.6945 6.6945C7.1575 6.2325 7.734 6.001 8.424 6H17.2785C17.4925 6 17.671 6.0715 17.814 6.2145C17.957 6.3575 18.0285 6.536 18.0285 6.75C18.0285 6.964 17.957 7.1425 17.814 7.2855C17.671 7.4285 17.4925 7.5 17.2785 7.5H8.424C8.193 7.5 7.981 7.596 7.788 7.788C7.595 7.98 7.499 8.192 7.5 8.424V27.5775C7.5 27.8075 7.596 28.019 7.788 28.212C7.98 28.405 8.1915 28.501 8.4225 28.5H17.2785C17.4925 28.5 17.671 28.5715 17.814 28.7145C17.957 28.8575 18.0285 29.036 18.0285 29.25C18.0285 29.464 17.957 29.6425 17.814 29.7855C17.671 29.9285 17.4925 30 17.2785 30H8.424ZM27.09 18.75H14.538C14.325 18.75 14.147 18.6785 14.004 18.5355C13.861 18.3925 13.789 18.214 13.788 18C13.787 17.786 13.8585 17.6075 14.0025 17.4645C14.1465 17.3215 14.325 17.25 14.538 17.25H27.09L24.1335 14.2935C23.9925 14.1535 23.9175 13.9845 23.9085 13.7865C23.8985 13.5875 23.9735 13.4055 24.1335 13.2405C24.2925 13.0755 24.469 12.9915 24.663 12.9885C24.858 12.9855 25.038 13.0665 25.203 13.2315L29.124 17.151C29.366 17.394 29.487 17.677 29.487 18C29.487 18.323 29.3655 18.606 29.1225 18.849L25.203 22.7685C25.057 22.9145 24.8835 22.991 24.6825 22.998C24.4815 23.005 24.2985 22.9255 24.1335 22.7595C23.9735 22.5945 23.895 22.416 23.898 22.224C23.901 22.032 23.982 21.857 24.141 21.699L27.09 18.75Z" fill="black"/>
</svg>
