<svg width="32" height="38" viewBox="0 0 32 38" fill="none" xmlns="http://www.w3.org/2000/svg">
<path fill-rule="evenodd" clip-rule="evenodd" d="M15.3809 0.311219C14.019 0.987835 12.7911 1.51666 12.6632 1.48172C12.5729 1.45698 12.5594 1.4633 12.6178 1.50311C12.6773 1.5437 12.5487 1.62197 12.1601 1.78174C11.8629 1.90395 11.6057 1.99018 11.5885 1.97329C11.5714 1.95645 11.5244 1.98696 11.484 2.04111C11.4438 2.09525 11.3254 2.14265 11.2211 2.14648C11.1167 2.15031 11.0421 2.17055 11.0551 2.19145C11.0904 2.24791 9.00734 3.02607 7.52368 3.51059C6.07237 3.9846 4.63901 4.39018 4.38975 4.39729C4.29948 4.39985 4.23545 4.41771 4.24757 4.43692C4.25964 4.45618 3.92988 4.54983 3.51468 4.64505C3.09949 4.74034 2.71807 4.82955 2.66703 4.84341C2.61599 4.85726 2.46794 4.8724 2.33802 4.87701C2.20809 4.88157 2.13738 4.89701 2.18093 4.91129C2.22449 4.92557 1.8036 5.02517 1.24561 5.13274C-0.018109 5.3763 0.00806154 5.35345 0.00335956 6.21664C-0.00882846 8.45487 0.0146192 16.2962 0.0341076 16.4953C0.0471618 16.629 0.0756836 16.9845 0.097523 17.2853C0.243408 19.2976 0.769534 21.6109 1.556 23.6976C1.73734 24.1788 1.85396 24.5752 1.82748 24.6203C1.80143 24.6646 1.8049 24.6779 1.83546 24.6505C1.8654 24.6237 2.07415 24.9809 2.29966 25.4449C2.92539 26.7324 3.61615 27.8845 4.35393 28.8712C4.66753 29.2906 4.75285 29.4449 4.6942 29.4865C4.63771 29.5265 4.64446 29.5331 4.71833 29.51C4.79016 29.4875 4.90913 29.5902 5.11664 29.8537C5.82484 30.753 7.07148 32.021 8.12615 32.9149C8.42343 33.1669 8.64881 33.4015 8.62697 33.4362C8.60408 33.4726 8.6172 33.4812 8.65803 33.4564C8.69861 33.4317 8.97306 33.6041 9.30177 33.8607C9.61686 34.1067 10.1597 34.5078 10.5081 34.752C10.8589 34.9979 11.1238 35.2243 11.1018 35.2593C11.0798 35.2941 11.0916 35.3045 11.1281 35.2823C11.1644 35.2603 11.4123 35.3777 11.6789 35.5432C12.8863 36.2927 14.9707 37.5033 15.5782 37.808L15.9611 38L16.3835 37.7827C17.7122 37.099 21.0952 35.0543 21.7301 34.5512C21.8194 34.4804 21.9703 34.3678 22.0654 34.301C22.1605 34.2341 22.4456 34.0225 22.699 33.8308C22.9524 33.639 23.1886 33.4997 23.224 33.5211C23.2593 33.5426 23.2703 33.5316 23.2484 33.4968C23.1946 33.4112 23.7436 32.9748 23.8351 33.0304C23.877 33.0558 23.8903 33.0475 23.867 33.0106C23.8179 32.9325 24.4324 32.3721 24.5132 32.4212C24.5453 32.4406 24.5638 32.4305 24.5544 32.3986C24.5451 32.3668 24.9278 31.9477 25.4049 31.4673C25.882 30.987 26.5182 30.2932 26.8185 29.9255C27.2983 29.3383 28.2979 27.9178 28.6228 27.3612C28.6852 27.2545 28.7633 27.1835 28.7963 27.2035C28.8293 27.2236 28.8382 27.2111 28.8159 27.1756C28.7936 27.1403 28.8762 26.9378 28.9993 26.7257C30.2425 24.5852 31.1923 21.8334 31.6527 19.0383C31.9402 17.2934 31.9476 17.1143 31.9744 11.2629L32 5.66587L31.8421 5.4815C31.6997 5.31523 31.613 5.2843 30.9567 5.16579C30.5566 5.09354 30.0622 4.99558 29.8581 4.94812C29.6539 4.90065 29.0553 4.76374 28.5279 4.6439C25.5165 3.95975 21.9519 2.76476 19.0905 1.48026C18.6679 1.29053 18.3369 1.11175 18.355 1.08294C18.3731 1.0542 18.35 1.0449 18.3037 1.0624C18.2573 1.07984 17.722 0.847091 17.114 0.545124C16.5061 0.243156 16.0066 -0.00211323 16.0041 1.37299e-05C16.0016 0.00214069 15.7212 0.142156 15.3809 0.311219ZM16.2466 0.238537C16.2683 0.272933 16.2435 0.283143 16.1884 0.262421C16.0813 0.222008 16.0617 0.178436 16.1506 0.178436C16.1827 0.178436 16.2259 0.205478 16.2466 0.238537ZM17.206 0.760008C17.206 0.77672 17.1504 0.761162 17.0823 0.725369C17.0142 0.689575 16.9586 0.646671 16.9586 0.629959C16.9586 0.613247 17.0142 0.628805 17.0823 0.664598C17.1504 0.700392 17.206 0.743296 17.206 0.760008ZM27.4594 4.52983C27.4388 4.55001 27.3854 4.5522 27.3408 4.53464C27.2915 4.51525 27.3061 4.50085 27.3782 4.49793C27.4434 4.49532 27.4799 4.50966 27.4594 4.52983ZM16.6584 4.93931C17.0446 5.11791 17.714 5.41033 18.1457 5.5893C18.5775 5.76821 18.9142 5.9408 18.894 5.97289C18.8739 6.00491 18.8875 6.01287 18.9243 5.99051C18.9611 5.96821 19.1394 6.00759 19.3205 6.07808C21.2374 6.82397 24.7059 7.89189 26.9193 8.41762C27.4468 8.54292 27.9006 8.66416 27.9277 8.68707C28.0002 8.74815 27.9841 15.5268 27.9091 16.4965C27.6437 19.9304 26.7318 22.7162 25.0449 25.2462C24.5249 26.0261 24.1932 26.436 24.1187 26.3908C24.0833 26.3693 24.0725 26.3807 24.0949 26.4161C24.1815 26.5538 22.6215 28.2552 22.4526 28.2072C22.4202 28.1981 22.4095 28.2156 22.4288 28.2463C22.5169 28.3862 20.2484 30.2503 20.0998 30.1601C20.0619 30.1371 20.0505 30.1475 20.0736 30.1841C20.1404 30.2903 18.7428 31.21 18.6241 31.1379C18.5911 31.1179 18.5717 31.134 18.5811 31.1736C18.5961 31.2373 18.2687 31.469 18.0103 31.5775C17.9593 31.5989 17.8479 31.6626 17.7629 31.7189C17.6345 31.8039 16.8823 32.208 16.2161 32.5497C16.1311 32.5933 16.0123 32.6292 15.9522 32.6294C15.7016 32.6303 13.6497 31.5188 12.4422 30.7282C11.755 30.2782 10.5802 29.398 10.5014 29.274C10.4636 29.2145 10.4 29.1659 10.36 29.1659C10.274 29.1659 8.99694 27.9276 8.4152 27.28C5.93812 24.5231 4.50575 21.1409 4.07936 17.0422C4.02052 16.4762 3.99719 15.1751 3.99719 12.454V8.6559L4.92522 8.42892C5.43563 8.30404 5.90199 8.21264 5.96157 8.2257C6.02121 8.23883 6.05486 8.22558 6.03637 8.19623C6.01793 8.16688 6.08054 8.12519 6.17551 8.10349C7.14925 7.88138 10.0136 7.00537 11.4214 6.49928C12.7496 6.02174 14.9918 5.09026 15.9469 4.61917C15.9519 4.61667 16.2721 4.76076 16.6584 4.93931ZM30.1197 5.13754C30.0992 5.15771 30.0458 5.1599 30.0012 5.14234C29.9518 5.12295 29.9665 5.10855 30.0385 5.10563C30.1037 5.10302 30.1402 5.11736 30.1197 5.13754ZM31.8533 13.2548C31.844 14.5357 31.8363 13.5054 31.8363 10.9652C31.8363 8.42497 31.844 7.37692 31.8533 8.63621C31.8626 9.89549 31.8627 11.9738 31.8533 13.2548ZM28.1412 13.1377C28.1315 13.9482 28.1235 13.2851 28.1235 11.664C28.1235 10.043 28.1315 9.37985 28.1412 10.1903C28.1509 11.0008 28.1509 12.3272 28.1412 13.1377ZM3.8244 11.4962C3.80961 11.5718 3.79693 11.5243 3.79625 11.3906C3.79557 11.2569 3.80769 11.195 3.82316 11.2531C3.83863 11.3112 3.83918 11.4206 3.8244 11.4962ZM3.8257 13.3504C3.81239 13.4758 3.80144 13.3732 3.80144 13.1225C3.80144 12.8718 3.81239 12.7693 3.8257 12.8946C3.83906 13.02 3.83906 13.2251 3.8257 13.3504ZM3.8244 13.927C3.80961 14.0026 3.79693 13.9551 3.79625 13.8214C3.79557 13.6877 3.80769 13.6258 3.82316 13.6839C3.83863 13.742 3.83918 13.8514 3.8244 13.927ZM3.8244 14.9601C3.80961 15.0357 3.79693 14.9882 3.79625 14.8545C3.79557 14.7208 3.80769 14.6589 3.82316 14.717C3.83863 14.7751 3.83918 14.8845 3.8244 14.9601ZM28.1358 15.0216C28.1186 15.0634 28.1046 15.0292 28.1046 14.9456C28.1046 14.8621 28.1186 14.8279 28.1358 14.8697C28.153 14.9115 28.153 14.9798 28.1358 15.0216ZM27.8522 15.1634C27.8552 15.2342 27.8699 15.2486 27.8896 15.2001C27.9075 15.1563 27.9053 15.1038 27.8847 15.0836C27.8642 15.0635 27.8496 15.0993 27.8522 15.1634ZM28.1358 15.5077C28.1186 15.5496 28.1046 15.5153 28.1046 15.4318C28.1046 15.3482 28.1186 15.3141 28.1358 15.3558C28.153 15.3976 28.153 15.466 28.1358 15.5077ZM0.173064 16.3889C0.157535 16.4474 0.14479 16.3996 0.14479 16.2826C0.14479 16.1656 0.157535 16.1178 0.173064 16.1762C0.188654 16.2347 0.188654 16.3305 0.173064 16.3889ZM3.88515 16.3889C3.86962 16.4474 3.85688 16.3996 3.85688 16.2826C3.85688 16.1656 3.86962 16.1178 3.88515 16.1762C3.90074 16.2347 3.90074 16.3305 3.88515 16.3889ZM0.235983 17.2093C0.221197 17.2846 0.209133 17.223 0.209133 17.0726C0.209133 16.9222 0.221197 16.8606 0.235983 16.9359C0.250708 17.0111 0.250708 17.1341 0.235983 17.2093ZM3.94665 17.1448C3.92691 17.1932 3.91225 17.1788 3.90928 17.108C3.90662 17.044 3.92122 17.0081 3.94176 17.0283C3.9623 17.0485 3.96453 17.1009 3.94665 17.1448ZM27.9515 17.7525C27.9317 17.8009 27.9171 17.7865 27.9141 17.7157C27.9114 17.6517 27.9261 17.6158 27.9466 17.636C27.9671 17.6562 27.9694 17.7086 27.9515 17.7525ZM31.6636 18.1171C31.6438 18.1655 31.6292 18.1511 31.6262 18.0803C31.6235 18.0163 31.6381 17.9804 31.6587 18.0006C31.6792 18.0208 31.6814 18.0732 31.6636 18.1171ZM5.32544 22.6331C5.32544 22.6665 5.29847 22.6528 5.26549 22.6027C5.23251 22.5525 5.20554 22.4842 5.20554 22.4508C5.20554 22.4173 5.23251 22.431 5.26549 22.4811C5.29847 22.5313 5.32544 22.5996 5.32544 22.6331ZM5.44918 22.9369C5.44918 22.9703 5.4222 22.9567 5.38923 22.9065C5.35625 22.8564 5.32928 22.788 5.32928 22.7546C5.32928 22.7212 5.35625 22.7349 5.38923 22.785C5.4222 22.8351 5.44918 22.9035 5.44918 22.9369ZM29.4635 25.6214C29.3905 25.7446 29.373 25.7052 29.4327 25.5524C29.4538 25.4981 29.4843 25.4664 29.5002 25.4821C29.5161 25.4977 29.4996 25.5604 29.4635 25.6214ZM24.7539 25.968C24.7539 25.9806 24.7052 26.0285 24.6457 26.0744C24.5476 26.1499 24.5454 26.1478 24.6223 26.0514C24.7032 25.9502 24.7539 25.918 24.7539 25.968ZM24.1353 26.756C24.1353 26.7676 24.0726 26.8291 23.9961 26.8928L23.8569 27.0085L23.9747 26.8718C24.0855 26.7433 24.1353 26.7074 24.1353 26.756ZM8.20423 27.2212C8.26579 27.2881 8.30229 27.3428 8.28527 27.3428C8.26826 27.3428 8.20392 27.2881 8.14236 27.2212C8.0808 27.1544 8.0443 27.0997 8.06131 27.0997C8.07833 27.0997 8.14267 27.1544 8.20423 27.2212ZM23.2072 27.7891C23.2072 27.8007 23.1446 27.8622 23.068 27.9259L22.9288 28.0416L23.0467 27.9049C23.1574 27.7764 23.2072 27.7405 23.2072 27.7891ZM3.90439 27.9505C3.94083 28.0173 3.95667 28.072 3.93966 28.072C3.92264 28.072 3.87896 28.0173 3.84252 27.9505C3.80608 27.8836 3.79024 27.8289 3.80726 27.8289C3.82427 27.8289 3.86795 27.8836 3.90439 27.9505ZM22.7123 28.2741C22.7123 28.285 22.6358 28.3602 22.5422 28.4413L22.372 28.5886L22.522 28.4214C22.6622 28.2653 22.7123 28.2264 22.7123 28.2741ZM9.50346 28.5582C9.56502 28.625 9.60152 28.6797 9.58451 28.6797C9.56749 28.6797 9.50315 28.625 9.44159 28.5582C9.38003 28.4913 9.34353 28.4366 9.36054 28.4366C9.37755 28.4366 9.4419 28.4913 9.50346 28.5582ZM9.78978 28.8468C9.86668 28.9432 9.86452 28.9453 9.7664 28.8698C9.70688 28.8239 9.65813 28.776 9.65813 28.7635C9.65813 28.7134 9.70892 28.7456 9.78978 28.8468ZM21.908 29.0065C21.908 29.0191 21.8593 29.067 21.7997 29.1129C21.7016 29.1884 21.6995 29.1863 21.7764 29.0899C21.8572 28.9887 21.908 28.9565 21.908 29.0065ZM10.3696 29.3482C10.4312 29.415 10.4677 29.4697 10.4507 29.4697C10.4336 29.4697 10.3693 29.415 10.3077 29.3482C10.2462 29.2813 10.2097 29.2267 10.2267 29.2267C10.2437 29.2267 10.3081 29.2813 10.3696 29.3482ZM5.39715 29.9407C5.47405 30.0371 5.47188 30.0392 5.37376 29.9637C5.27069 29.8842 5.23796 29.8344 5.28888 29.8344C5.30168 29.8344 5.35044 29.8822 5.39715 29.9407ZM20.7944 29.9161C20.7944 29.9276 20.7317 29.9891 20.6552 30.0528L20.516 30.1686L20.6338 30.0319C20.7446 29.9034 20.7944 29.8675 20.7944 29.9161ZM26.4863 30.158C26.4863 30.1689 26.4097 30.2441 26.3161 30.3251L26.146 30.4724L26.2959 30.3053C26.4361 30.1491 26.4863 30.1103 26.4863 30.158ZM6.01583 30.6699C6.09273 30.7663 6.09056 30.7685 5.99244 30.6929C5.93292 30.647 5.88417 30.5991 5.88417 30.5866C5.88417 30.5366 5.93497 30.5687 6.01583 30.6699ZM25.9913 30.7061C25.9913 30.7176 25.9286 30.7791 25.8521 30.8428L25.7129 30.9586L25.8308 30.8219C25.9415 30.6934 25.9913 30.6575 25.9913 30.7061ZM6.2633 30.913C6.3402 31.0094 6.33804 31.0115 6.23991 30.936C6.1804 30.8901 6.13164 30.8422 6.13164 30.8296C6.13164 30.7796 6.18244 30.8118 6.2633 30.913ZM6.51077 31.2169C6.58767 31.3133 6.58551 31.3154 6.48739 31.2398C6.42787 31.194 6.37912 31.1461 6.37912 31.1335C6.37912 31.0835 6.42991 31.1156 6.51077 31.2169ZM25.4964 31.2519C25.4964 31.2628 25.4198 31.3379 25.3262 31.419L25.1561 31.5663L25.3061 31.3992C25.4463 31.243 25.4964 31.2042 25.4964 31.2519ZM6.75824 31.46C6.83515 31.5563 6.83298 31.5585 6.73486 31.4829C6.67534 31.437 6.62659 31.3892 6.62659 31.3766C6.62659 31.3266 6.67738 31.3587 6.75824 31.46ZM7.0945 31.7942L7.2762 31.9917L7.07513 31.8132C6.88773 31.6468 6.8456 31.5967 6.89343 31.5967C6.90407 31.5967 6.99458 31.6855 7.0945 31.7942ZM24.4446 32.2242C24.4446 32.2351 24.3681 32.3103 24.2745 32.3913L24.1043 32.5386L24.2543 32.3715C24.3945 32.2153 24.4446 32.1765 24.4446 32.2242ZM7.99561 32.6146C8.07251 32.711 8.07034 32.7131 7.97222 32.6376C7.86915 32.5581 7.83642 32.5082 7.88734 32.5082C7.90014 32.5082 7.9489 32.5561 7.99561 32.6146ZM23.8259 32.7743C23.8259 32.7869 23.7772 32.8348 23.7177 32.8806C23.6195 32.9562 23.6174 32.9541 23.6943 32.8577C23.7751 32.7564 23.8259 32.7243 23.8259 32.7743ZM8.42868 32.9792C8.50558 33.0756 8.50342 33.0777 8.4053 33.0022C8.34578 32.9563 8.29703 32.9084 8.29703 32.8958C8.29703 32.8458 8.34782 32.878 8.42868 32.9792ZM8.79989 33.2831C8.87679 33.3795 8.87463 33.3816 8.77651 33.306C8.71699 33.2602 8.66824 33.2123 8.66824 33.1997C8.66824 33.1497 8.71903 33.1818 8.79989 33.2831ZM22.836 33.5643C22.836 33.5769 22.7873 33.6248 22.7278 33.6707C22.6296 33.7462 22.6275 33.7441 22.7044 33.6477C22.7852 33.5465 22.836 33.5143 22.836 33.5643ZM22.5886 33.7466C22.5886 33.7592 22.5398 33.8071 22.4803 33.853C22.3822 33.9285 22.38 33.9264 22.4569 33.83C22.5378 33.7288 22.5886 33.6966 22.5886 33.7466ZM21.8461 34.2936C21.8461 34.3061 21.7974 34.354 21.7379 34.3999C21.6398 34.4754 21.6376 34.4733 21.7145 34.3769C21.7954 34.2757 21.8461 34.2435 21.8461 34.2936ZM14.7932 37.2222C14.7932 37.2389 14.7375 37.2234 14.6694 37.1876C14.6014 37.1518 14.5457 37.1089 14.5457 37.0922C14.5457 37.0754 14.6014 37.091 14.6694 37.1268C14.7375 37.1626 14.7932 37.2055 14.7932 37.2222ZM15.7831 37.7691C15.7831 37.7858 15.7274 37.7703 15.6593 37.7345C15.5913 37.6987 15.5356 37.6558 15.5356 37.6391C15.5356 37.6224 15.5913 37.6379 15.6593 37.6737C15.7274 37.7095 15.7831 37.7524 15.7831 37.7691ZM16.0138 37.832C15.9932 37.8521 15.9398 37.8543 15.8952 37.8368C15.8459 37.8174 15.8605 37.803 15.9326 37.8001C15.9978 37.7975 16.0343 37.8118 16.0138 37.832Z" fill="#03A94D"/>
</svg>
