<svg width="42" height="50" viewBox="0 0 42 50" fill="none" xmlns="http://www.w3.org/2000/svg">
<path fill-rule="evenodd" clip-rule="evenodd" d="M20.1875 0.409498C18.3999 1.29978 16.7884 1.9956 16.6205 1.94963C16.5019 1.91708 16.4843 1.9254 16.5608 1.97777C16.6389 2.03119 16.4701 2.13418 15.9602 2.34439C15.5701 2.50519 15.2324 2.61866 15.21 2.59643C15.1875 2.57428 15.1257 2.61442 15.0728 2.68567C15.0199 2.75691 14.8646 2.81928 14.7277 2.82432C14.5907 2.82936 14.4927 2.85598 14.5098 2.88349C14.5561 2.95777 11.8221 3.98167 9.87482 4.6192C7.96999 5.2429 6.0887 5.77656 5.76154 5.78591C5.64307 5.78927 5.55903 5.81278 5.57494 5.83805C5.59078 5.8634 5.15797 5.98661 4.61302 6.11191C4.06808 6.23729 3.56747 6.35468 3.50048 6.37291C3.43348 6.39114 3.23917 6.41105 3.06864 6.41712C2.89812 6.42312 2.80531 6.44343 2.86247 6.46222C2.91964 6.48101 2.36722 6.61207 1.63486 6.7536C-0.0237681 7.07408 0.0105808 7.04402 0.00440943 8.17978C-0.0115873 11.1248 0.0191877 21.4424 0.0447663 21.7043C0.0618999 21.8802 0.0993347 22.348 0.127999 22.7438C0.319473 25.3915 1.01001 28.4353 2.04225 31.1811C2.28025 31.8142 2.43332 32.3357 2.39857 32.3951C2.36438 32.4535 2.36893 32.4709 2.40904 32.4349C2.44834 32.3996 2.72232 32.8696 3.0183 33.4801C3.83958 35.1742 4.74619 36.6901 5.71453 37.9884C6.12614 38.5403 6.23812 38.7433 6.16114 38.798C6.087 38.8506 6.09585 38.8593 6.19281 38.8289C6.28708 38.7994 6.44323 38.9344 6.71558 39.2812C7.6451 40.4644 9.28132 42.1329 10.6656 43.309C11.0557 43.6406 11.3516 43.9493 11.3229 43.995C11.2929 44.0429 11.3101 44.0542 11.3637 44.0216C11.4169 43.9891 11.7771 44.2159 12.2086 44.5535C12.6221 44.8772 13.3346 45.405 13.7918 45.7263C14.2523 46.0499 14.6 46.3477 14.5711 46.3938C14.5422 46.4396 14.5577 46.4533 14.6056 46.4241C14.6532 46.3951 14.9786 46.5496 15.3286 46.7674C16.9132 47.7535 19.649 49.3465 20.4464 49.7473L20.949 50L21.5033 49.7141C23.2472 48.8145 27.6874 46.1241 28.5207 45.4621C28.638 45.369 28.836 45.2208 28.9608 45.1329C29.0857 45.0449 29.4599 44.7665 29.7924 44.5142C30.125 44.2618 30.4351 44.0785 30.4814 44.1067C30.5279 44.1349 30.5422 44.1206 30.5135 44.0747C30.4429 43.9622 31.1635 43.3879 31.2836 43.461C31.3385 43.4945 31.356 43.4836 31.3254 43.435C31.2611 43.3323 32.0675 42.5949 32.1736 42.6595C32.2157 42.685 32.2399 42.6717 32.2277 42.6298C32.2154 42.5879 32.7177 42.0364 33.3439 41.4044C33.9701 40.7723 34.8051 39.8594 35.1993 39.3757C35.8291 38.6031 37.141 36.734 37.5674 36.0016C37.6493 35.8611 37.7518 35.7677 37.7951 35.7941C37.8385 35.8205 37.8501 35.8041 37.8209 35.7574C37.7916 35.7109 37.9 35.4445 38.0616 35.1654C39.6933 32.3489 40.9399 28.7281 41.5442 25.0503C41.9215 22.7545 41.9312 22.5189 41.9664 14.8196L42 7.4551L41.7928 7.2125C41.6058 6.99372 41.492 6.95302 40.6307 6.7971C40.1056 6.70203 39.4567 6.57313 39.1887 6.51068C38.9207 6.44823 38.1351 6.26808 37.4429 6.11039C33.4904 5.21019 28.8118 3.63784 25.0562 1.94771C24.5016 1.69807 24.0672 1.46282 24.0909 1.42492C24.1147 1.3871 24.0844 1.37487 24.0236 1.3979C23.9627 1.42084 23.2601 1.11459 22.4622 0.717268C21.6642 0.319942 21.0087 -0.00278057 21.0054 1.80657e-05C21.0022 0.0028167 20.6341 0.187047 20.1875 0.409498ZM21.3237 0.313865C21.3521 0.359123 21.3196 0.372557 21.2473 0.34529C21.1067 0.292116 21.0809 0.234784 21.1977 0.234784C21.2398 0.234784 21.2964 0.270366 21.3237 0.313865ZM22.5829 1.00001C22.5829 1.022 22.5098 1.00153 22.4205 0.954432C22.3312 0.907335 22.2581 0.850882 22.2581 0.828893C22.2581 0.806904 22.3312 0.827374 22.4205 0.874471C22.5098 0.921568 22.5829 0.978021 22.5829 1.00001ZM36.0404 5.96031C36.0135 5.98686 35.9434 5.98973 35.8848 5.96663C35.82 5.94112 35.8393 5.92217 35.9339 5.91833C36.0195 5.91489 36.0674 5.93376 36.0404 5.96031ZM21.8641 6.49909C22.3711 6.73409 23.2496 7.11886 23.8162 7.35435C24.3829 7.58975 24.8249 7.81684 24.7984 7.85906C24.772 7.9012 24.7898 7.91168 24.8381 7.88225C24.8865 7.85291 25.1205 7.90472 25.3582 7.99747C27.8741 8.97891 32.4265 10.3841 35.3316 11.0758C36.0239 11.2407 36.6195 11.4002 36.6551 11.4304C36.7503 11.5107 36.7291 20.43 36.6307 21.706C36.2824 26.2243 35.0855 29.8897 32.8714 33.2187C32.1889 34.2448 31.7535 34.7842 31.6558 34.7247C31.6093 34.6964 31.5952 34.7115 31.6245 34.7581C31.7382 34.9393 29.6907 37.1779 29.469 37.1148C29.4265 37.1027 29.4125 37.1258 29.4378 37.1662C29.5534 37.3503 26.576 39.803 26.381 39.6843C26.3313 39.6541 26.3163 39.6678 26.3465 39.7159C26.4342 39.8557 24.5999 41.0658 24.4441 40.9709C24.4008 40.9446 24.3754 40.9658 24.3876 41.0179C24.4074 41.1017 23.9776 41.4065 23.6385 41.5493C23.5716 41.5776 23.4254 41.6613 23.3137 41.7354C23.1452 41.8473 22.158 42.3789 21.2837 42.8285C21.172 42.886 21.0161 42.9331 20.9372 42.9335C20.6083 42.9346 17.9153 41.4722 16.3304 40.4318C15.4284 39.8397 13.8865 38.6815 13.7831 38.5184C13.7335 38.4401 13.65 38.3762 13.5975 38.3762C13.4847 38.3762 11.8085 36.7468 11.0449 35.8947C7.79378 32.2672 5.9138 27.817 5.35415 22.4239C5.27693 21.6793 5.24632 19.9672 5.24632 16.3869V11.3893L6.46434 11.0907C7.13426 10.9264 7.74636 10.8061 7.82456 10.8233C7.90284 10.8406 7.94701 10.8231 7.92273 10.7845C7.89853 10.7459 7.98071 10.691 8.10536 10.6625C9.38339 10.3702 13.1429 9.2176 14.9905 8.55168C16.7338 7.92335 19.6767 6.69771 20.9303 6.07785C20.9369 6.07457 21.3571 6.26416 21.8641 6.49909ZM39.5321 6.75992C39.5052 6.78646 39.4351 6.78934 39.3765 6.76624C39.3117 6.74073 39.331 6.72178 39.4256 6.71794C39.5112 6.7145 39.5591 6.73337 39.5321 6.75992ZM41.8075 17.4405C41.7952 19.1259 41.7851 17.7702 41.7851 14.4279C41.7851 11.0855 41.7952 9.70648 41.8075 11.3634C41.8196 13.0204 41.8197 15.755 41.8075 17.4405ZM36.9353 17.2865C36.9225 18.3529 36.9121 17.4804 36.9121 15.3474C36.9121 13.2144 36.9225 12.3419 36.9353 13.4084C36.9481 14.4748 36.9481 16.22 36.9353 17.2865ZM5.01952 15.1266C5.00011 15.226 4.98347 15.1635 4.98257 14.9876C4.98168 14.8117 4.9976 14.7303 5.0179 14.8067C5.0382 14.8832 5.03893 15.0271 5.01952 15.1266ZM5.02122 17.5663C5.00377 17.7313 4.98939 17.5963 4.98939 17.2665C4.98939 16.9366 5.00377 16.8017 5.02122 16.9666C5.03876 17.1316 5.03876 17.4014 5.02122 17.5663ZM5.01952 18.325C5.00011 18.4245 4.98347 18.3619 4.98257 18.186C4.98168 18.0101 4.9976 17.9287 5.0179 18.0051C5.0382 18.0816 5.03893 18.2255 5.01952 18.325ZM5.01952 19.6843C5.00011 19.7838 4.98347 19.7213 4.98257 19.5454C4.98168 19.3694 4.9976 19.288 5.0179 19.3645C5.0382 19.4409 5.03893 19.5849 5.01952 19.6843ZM36.9282 19.7652C36.9057 19.8203 36.8873 19.7752 36.8873 19.6653C36.8873 19.5553 36.9057 19.5104 36.9282 19.5653C36.9508 19.6204 36.9508 19.7103 36.9282 19.7652ZM36.5561 19.9518C36.56 20.045 36.5792 20.0639 36.6051 20.0002C36.6286 19.9424 36.6257 19.8734 36.5987 19.8469C36.5717 19.8203 36.5526 19.8675 36.5561 19.9518ZM36.9282 20.4049C36.9057 20.4599 36.8873 20.4149 36.8873 20.305C36.8873 20.195 36.9057 20.1501 36.9282 20.205C36.9508 20.26 36.9508 20.35 36.9282 20.4049ZM0.227146 21.5644C0.206764 21.6413 0.190037 21.5784 0.190037 21.4244C0.190037 21.2705 0.206764 21.2076 0.227146 21.2845C0.247609 21.3614 0.247609 21.4874 0.227146 21.5644ZM5.09926 21.5644C5.07888 21.6413 5.06215 21.5784 5.06215 21.4244C5.06215 21.2705 5.07888 21.2076 5.09926 21.2845C5.11972 21.3614 5.11972 21.4874 5.09926 21.5644ZM0.309728 22.6438C0.290321 22.7428 0.274487 22.6618 0.274487 22.4639C0.274487 22.266 0.290321 22.185 0.309728 22.284C0.329054 22.383 0.329054 22.5448 0.309728 22.6438ZM5.17998 22.5589C5.15407 22.6226 5.13483 22.6037 5.13093 22.5105C5.12744 22.4263 5.1466 22.3791 5.17356 22.4056C5.20052 22.4322 5.20344 22.5012 5.17998 22.5589ZM36.6863 23.3585C36.6604 23.4223 36.6412 23.4033 36.6373 23.3102C36.6338 23.2259 36.6529 23.1787 36.6799 23.2052C36.7069 23.2318 36.7098 23.3008 36.6863 23.3585ZM41.5584 23.8383C41.5325 23.902 41.5133 23.8831 41.5094 23.7899C41.5059 23.7056 41.5251 23.6585 41.552 23.685C41.579 23.7116 41.5819 23.7806 41.5584 23.8383ZM6.98964 29.7804C6.98964 29.8243 6.95424 29.8063 6.91096 29.7404C6.86767 29.6744 6.83227 29.5844 6.83227 29.5405C6.83227 29.4965 6.86767 29.5145 6.91096 29.5805C6.95424 29.6464 6.98964 29.7364 6.98964 29.7804ZM7.15204 30.1802C7.15204 30.2241 7.11664 30.2061 7.07336 30.1402C7.03008 30.0742 6.99468 29.9843 6.99468 29.9403C6.99468 29.8963 7.03008 29.9143 7.07336 29.9803C7.11664 30.0462 7.15204 30.1362 7.15204 30.1802ZM38.6708 33.7124C38.5751 33.8745 38.552 33.8226 38.6304 33.6216C38.6581 33.5501 38.6981 33.5085 38.719 33.5291C38.7399 33.5496 38.7182 33.6322 38.6708 33.7124ZM32.4896 34.1684C32.4896 34.185 32.4256 34.248 32.3475 34.3084C32.2187 34.4078 32.2158 34.405 32.3168 34.2782C32.4229 34.1449 32.4896 34.1026 32.4896 34.1684ZM31.6775 35.2053C31.6775 35.2205 31.5953 35.3014 31.4948 35.3852L31.3121 35.5375L31.4668 35.3576C31.6122 35.1886 31.6775 35.1413 31.6775 35.2053ZM10.768 35.8174C10.8488 35.9054 10.8968 35.9773 10.8744 35.9773C10.8521 35.9773 10.7676 35.9054 10.6868 35.8174C10.606 35.7294 10.5581 35.6575 10.5805 35.6575C10.6028 35.6575 10.6873 35.7294 10.768 35.8174ZM30.4595 36.5646C30.4595 36.5798 30.3772 36.6608 30.2768 36.7446L30.0941 36.8969L30.2488 36.717C30.3941 36.5479 30.4595 36.5007 30.4595 36.5646ZM5.12451 36.7769C5.17234 36.8649 5.19313 36.9369 5.1708 36.9369C5.14847 36.9369 5.09114 36.8649 5.04331 36.7769C4.99548 36.689 4.9747 36.617 4.99703 36.617C5.01936 36.617 5.07669 36.689 5.12451 36.7769ZM29.8099 37.2028C29.8099 37.2171 29.7094 37.316 29.5866 37.4227L29.3633 37.6165L29.5601 37.3966C29.7441 37.1911 29.8099 37.14 29.8099 37.2028ZM12.4733 37.5765C12.5541 37.6645 12.602 37.7365 12.5797 37.7365C12.5573 37.7365 12.4729 37.6645 12.3921 37.5765C12.3113 37.4886 12.2634 37.4166 12.2857 37.4166C12.308 37.4166 12.3925 37.4886 12.4733 37.5765ZM12.8491 37.9564C12.95 38.0832 12.9472 38.086 12.8184 37.9866C12.7403 37.9262 12.6763 37.8632 12.6763 37.8467C12.6763 37.7808 12.743 37.8231 12.8491 37.9564ZM28.7543 38.1665C28.7543 38.1831 28.6903 38.2461 28.6122 38.3064C28.4834 38.4058 28.4805 38.403 28.5815 38.2762C28.6876 38.143 28.7543 38.1007 28.7543 38.1665ZM13.6101 38.616C13.6909 38.704 13.7388 38.776 13.7165 38.776C13.6942 38.776 13.6097 38.704 13.5289 38.616C13.4481 38.5281 13.4002 38.4561 13.4225 38.4561C13.4449 38.4561 13.5293 38.5281 13.6101 38.616ZM7.08375 39.3957C7.18469 39.5225 7.18185 39.5253 7.05306 39.4259C6.91778 39.3214 6.87482 39.2557 6.94165 39.2557C6.95846 39.2557 7.02245 39.3187 7.08375 39.3957ZM27.2926 39.3633C27.2926 39.3785 27.2104 39.4594 27.1099 39.5432L26.9272 39.6955L27.0819 39.5156C27.2273 39.3466 27.2926 39.2993 27.2926 39.3633ZM34.7632 39.6816C34.7632 39.6959 34.6628 39.7948 34.5399 39.9015L34.3166 40.0953L34.5134 39.8754C34.6974 39.6699 34.7632 39.6188 34.7632 39.6816ZM7.89577 40.3552C7.99671 40.482 7.99386 40.4848 7.86508 40.3854C7.78696 40.325 7.72297 40.262 7.72297 40.2455C7.72297 40.1797 7.78964 40.222 7.89577 40.3552ZM34.1136 40.4028C34.1136 40.418 34.0313 40.4989 33.9309 40.5827L33.7482 40.735L33.9029 40.5551C34.0482 40.3861 34.1136 40.3388 34.1136 40.4028ZM8.22058 40.675C8.32151 40.8019 8.31867 40.8046 8.18989 40.7053C8.11177 40.6449 8.04778 40.5819 8.04778 40.5653C8.04778 40.4995 8.11445 40.5418 8.22058 40.675ZM8.54539 41.0748C8.64632 41.2017 8.64348 41.2045 8.51469 41.1051C8.43658 41.0447 8.37259 40.9817 8.37259 40.9651C8.37259 40.8993 8.43926 40.9416 8.54539 41.0748ZM33.464 41.1209C33.464 41.1352 33.3635 41.2341 33.2407 41.3408L33.0174 41.5346L33.2142 41.3147C33.3982 41.1092 33.464 41.0581 33.464 41.1209ZM8.87019 41.3947C8.97113 41.5215 8.96829 41.5243 8.8395 41.4249C8.76138 41.3645 8.6974 41.3015 8.6974 41.285C8.6974 41.2192 8.76406 41.2615 8.87019 41.3947ZM9.31153 41.8345L9.55002 42.0943L9.28611 41.8595C9.04015 41.6406 8.98485 41.5746 9.04762 41.5746C9.06159 41.5746 9.18039 41.6915 9.31153 41.8345ZM32.0835 42.4003C32.0835 42.4146 31.9831 42.5135 31.8602 42.6202L31.6369 42.814L31.8338 42.5941C32.0178 42.3886 32.0835 42.3375 32.0835 42.4003ZM10.4942 42.9139C10.5952 43.0408 10.5923 43.0436 10.4635 42.9442C10.3283 42.8397 10.2853 42.774 10.3521 42.774C10.3689 42.774 10.4329 42.837 10.4942 42.9139ZM31.2715 43.1241C31.2715 43.1406 31.2075 43.2036 31.1294 43.264C31.0006 43.3634 30.9978 43.3606 31.0987 43.2338C31.2049 43.1006 31.2715 43.0583 31.2715 43.1241ZM11.0626 43.3937C11.1636 43.5205 11.1607 43.5233 11.032 43.4239C10.9538 43.3636 10.8898 43.3005 10.8898 43.284C10.8898 43.2182 10.9565 43.2605 11.0626 43.3937ZM11.5499 43.7935C11.6508 43.9203 11.648 43.9231 11.5192 43.8237C11.441 43.7634 11.3771 43.7004 11.3771 43.6838C11.3771 43.618 11.4437 43.6603 11.5499 43.7935ZM29.9723 44.1636C29.9723 44.1801 29.9083 44.2431 29.8302 44.3035C29.7014 44.4029 29.6986 44.4001 29.7995 44.2733C29.9056 44.1401 29.9723 44.0978 29.9723 44.1636ZM29.6475 44.4035C29.6475 44.42 29.5835 44.483 29.5054 44.5434C29.3766 44.6428 29.3738 44.64 29.4747 44.5132C29.5808 44.3799 29.6475 44.3376 29.6475 44.4035ZM28.6731 45.1231C28.6731 45.1396 28.6091 45.2027 28.531 45.263C28.4022 45.3624 28.3993 45.3596 28.5003 45.2328C28.6064 45.0996 28.6731 45.0573 28.6731 45.1231ZM19.416 48.9766C19.416 48.9986 19.343 48.9781 19.2536 48.931C19.1643 48.8839 19.0912 48.8275 19.0912 48.8055C19.0912 48.7835 19.1643 48.8039 19.2536 48.851C19.343 48.8981 19.416 48.9546 19.416 48.9766ZM20.7153 49.6962C20.7153 49.7182 20.6422 49.6978 20.5529 49.6507C20.4636 49.6036 20.3905 49.5471 20.3905 49.5251C20.3905 49.5031 20.4636 49.5236 20.5529 49.5707C20.6422 49.6178 20.7153 49.6742 20.7153 49.6962ZM21.0181 49.7789C20.9911 49.8055 20.921 49.8083 20.8625 49.7852C20.7977 49.7597 20.8169 49.7408 20.9115 49.7369C20.9971 49.7335 21.045 49.7524 21.0181 49.7789Z" fill="#027A38"/>
</svg>
