<svg width="33" height="33" viewBox="0 0 33 33" fill="none" xmlns="http://www.w3.org/2000/svg">
<path fill-rule="evenodd" clip-rule="evenodd" d="M16.3525 12.5178C14.985 12.5178 13.6735 13.0611 12.7065 14.0281C11.7395 14.995 11.1963 16.3065 11.1963 17.6741C11.1963 19.0416 11.7395 20.3531 12.7065 21.3201C13.6735 22.2871 14.985 22.8303 16.3525 22.8303C17.7201 22.8303 19.0316 22.2871 19.9986 21.3201C20.9655 20.3531 21.5088 19.0416 21.5088 17.6741C21.5088 16.3065 20.9655 14.995 19.9986 14.0281C19.0316 13.0611 17.7201 12.5178 16.3525 12.5178ZM13.2588 17.6741C13.2588 16.8536 13.5847 16.0667 14.1649 15.4865C14.7451 14.9063 15.532 14.5803 16.3525 14.5803C17.1731 14.5803 17.96 14.9063 18.5402 15.4865C19.1203 16.0667 19.4463 16.8536 19.4463 17.6741C19.4463 18.4946 19.1203 19.2815 18.5402 19.8617C17.96 20.4419 17.1731 20.7678 16.3525 20.7678C15.532 20.7678 14.7451 20.4419 14.1649 19.8617C13.5847 19.2815 13.2588 18.4946 13.2588 17.6741Z" fill="#374151"/>
<path fill-rule="evenodd" clip-rule="evenodd" d="M16.3525 5.64282C10.1458 5.64282 5.96441 9.36082 3.53754 12.5137L3.49491 12.5701C2.94491 13.2837 2.44029 13.9396 2.09791 14.7151C1.73079 15.5469 1.57129 16.4531 1.57129 17.6741C1.57129 18.8951 1.73079 19.8012 2.09791 20.6331C2.44166 21.4086 2.94629 22.0658 3.49491 22.7781L3.53891 22.8344C5.96441 25.9873 10.1458 29.7053 16.3525 29.7053C22.5593 29.7053 26.7407 25.9873 29.1675 22.8344L29.2102 22.7781C29.7602 22.0658 30.2648 21.4086 30.6072 20.6331C30.9743 19.8012 31.1338 18.8951 31.1338 17.6741C31.1338 16.4531 30.9743 15.5469 30.6072 14.7151C30.2634 13.9396 29.7588 13.2837 29.2102 12.5701L29.1662 12.5137C26.7407 9.36082 22.5593 5.64282 16.3525 5.64282ZM5.17379 13.7718C7.41229 10.8609 11.0588 7.70532 16.3525 7.70532C21.6463 7.70532 25.2914 10.8609 27.5313 13.7718C28.1363 14.5556 28.4883 15.0231 28.7207 15.5483C28.9379 16.0406 29.0713 16.6414 29.0713 17.6741C29.0713 18.7067 28.9379 19.3076 28.7207 19.7998C28.4883 20.3251 28.1349 20.7926 27.5327 21.5763C25.29 24.4872 21.6463 27.6428 16.3525 27.6428C11.0588 27.6428 7.41366 24.4872 5.17379 21.5763C4.56879 20.7926 4.21679 20.3251 3.98441 19.7998C3.76716 19.3076 3.63379 18.7067 3.63379 17.6741C3.63379 16.6414 3.76716 16.0406 3.98441 15.5483C4.21679 15.0231 4.57154 14.5556 5.17379 13.7718Z" fill="#374151"/>
</svg>
