<svg width="60" height="60" viewBox="0 0 60 60" fill="none" xmlns="http://www.w3.org/2000/svg">
<path d="M59.4332 52.5619L34.1749 2.65388C32.3846 -0.884626 27.6154 -0.884626 25.8236 2.65388L0.566775 52.5619C0.178055 53.3301 -0.0168306 54.1924 0.00113923 55.0646C0.0191091 55.9368 0.249321 56.7892 0.669304 57.5385C1.08929 58.2878 1.68469 58.9085 2.3974 59.3399C3.11011 59.7713 3.91577 59.9988 4.73574 60H55.2569C56.0775 60.0001 56.884 59.7737 57.5978 59.3428C58.3115 58.912 58.9079 58.2914 59.3288 57.5419C59.7497 56.7924 59.9805 55.9395 59.9988 55.0666C60.0171 54.1937 59.8223 53.3307 59.4332 52.5619ZM30 52.2733C29.4138 52.2733 28.8407 52.0884 28.3533 51.7418C27.8658 51.3953 27.4859 50.9027 27.2616 50.3265C27.0372 49.7502 26.9785 49.1161 27.0929 48.5043C27.2073 47.8925 27.4896 47.3306 27.9041 46.8895C28.3186 46.4485 28.8468 46.1481 29.4217 46.0264C29.9967 45.9047 30.5927 45.9672 31.1343 46.2059C31.6759 46.4446 32.1388 46.8488 32.4645 47.3674C32.7902 47.8861 32.9641 48.4958 32.9641 49.1196C32.9641 49.956 32.6518 50.7582 32.0959 51.3496C31.54 51.9411 30.7861 52.2733 30 52.2733ZM33.219 20.5545L32.3683 39.7924C32.3683 40.4615 32.1185 41.1032 31.6738 41.5764C31.2291 42.0496 30.6259 42.3154 29.997 42.3154C29.3681 42.3154 28.765 42.0496 28.3203 41.5764C27.8756 41.1032 27.6258 40.4615 27.6258 39.7924L26.7751 20.5624C26.756 20.1029 26.824 19.644 26.9751 19.213C27.1263 18.7821 27.3574 18.3879 27.6547 18.054C27.9521 17.7202 28.3095 17.4534 28.7059 17.2696C29.1022 17.0859 29.5292 16.9889 29.9615 16.9845H29.9926C30.4278 16.9843 30.8586 17.0778 31.2589 17.2596C31.6592 17.4414 32.0207 17.7075 32.3217 18.0421C32.6227 18.3766 32.8568 18.7725 33.01 19.2059C33.1632 19.6394 33.2323 20.1014 33.2131 20.564L33.219 20.5545Z" fill="#F59E0B"/>
</svg>
